<?xml version="1.0" standalone="no"?>
<!DOCTYPE svg PUBLIC "-//W3C//DTD SVG 20010904//EN"
 "http://www.w3.org/TR/2001/REC-SVG-20010904/DTD/svg10.dtd">
<svg version="1.0" xmlns="http://www.w3.org/2000/svg"
 width="1024.000000pt" height="1024.000000pt" viewBox="0 0 1024.000000 1024.000000"
 preserveAspectRatio="xMidYMid meet">

<g transform="translate(0.000000,1024.000000) scale(0.100000,-0.100000)"
fill="#000000" stroke="none">
<path d="M5185 8297 c-211 -71 -371 -244 -419 -456 l-12 -53 -89 -23 c-50 -13
-108 -30 -130 -38 -92 -35 -230 -98 -247 -114 -22 -19 -17 -24 -53 61 -35 84
-99 172 -151 208 -147 102 -303 93 -431 -25 -68 -63 -96 -125 -101 -227 -7
-142 43 -247 163 -341 l64 -50 -35 -36 c-57 -57 -186 -223 -237 -304 -106
-170 -215 -449 -257 -658 -77 -388 -18 -809 164 -1156 84 -160 138 -247 201
-325 88 -110 263 -287 336 -341 38 -29 69 -53 69 -54 0 -1 -55 -42 -121 -91
-169 -124 -404 -320 -468 -390 -137 -149 -173 -352 -94 -522 37 -77 134 -174
213 -211 112 -53 252 -63 374 -26 27 8 54 15 60 15 8 0 11 -126 12 -428 0
-407 1 -431 22 -506 30 -107 83 -199 159 -273 35 -35 63 -64 63 -66 0 -2 -104
-2 -230 0 l-230 3 -25 -24 c-29 -29 -33 -80 -10 -110 15 -20 40 -20 1534 -18
835 1 1529 6 1542 10 13 5 39 5 59 1 19 -5 70 -9 112 -9 71 0 78 2 97 26 34
44 24 87 -27 113 -9 4 -197 9 -417 10 -219 1 -402 4 -405 8 -3 3 2 8 10 11 41
15 111 99 154 185 75 154 80 196 81 669 0 225 2 408 4 408 3 0 39 -12 80 -26
68 -24 87 -26 183 -22 95 4 113 8 172 37 193 95 294 315 240 524 -21 83 -64
164 -124 236 -52 63 -279 251 -435 361 -49 35 -102 73 -116 85 l-27 22 68 52
c77 58 242 227 311 316 163 212 283 458 345 705 71 289 72 631 3 928 -62 270
-240 601 -435 812 -30 32 -54 60 -54 64 0 3 10 6 21 6 33 0 160 134 195 205
26 54 29 70 29 160 0 116 -15 153 -93 237 -72 77 -109 93 -222 93 -88 0 -101
-3 -162 -33 -85 -42 -157 -119 -210 -227 l-40 -80 -115 57 c-138 68 -268 112
-421 141 -72 15 -109 26 -103 32 19 21 32 85 32 160 0 63 -4 86 -25 130 -31
63 -100 129 -164 158 -58 25 -180 33 -237 14z m199 -166 c48 -32 66 -69 66
-137 0 -79 -54 -193 -134 -282 -31 -34 -56 -71 -56 -82 0 -33 60 -36 205 -12
173 30 224 28 334 -8 494 -161 885 -489 1103 -925 128 -254 187 -554 175 -880
-13 -361 -157 -737 -389 -1016 -180 -218 -451 -421 -698 -523 -128 -52 -322
-110 -450 -132 -147 -26 -443 -26 -590 0 -424 75 -855 308 -1124 607 -245 272
-417 654 -448 994 -23 253 23 577 116 820 95 249 299 530 512 706 152 125 384
255 589 330 157 58 148 58 165 7 11 -32 25 -48 55 -65 69 -39 72 -36 79 75 12
201 34 283 105 386 65 94 179 155 291 156 47 0 73 -5 94 -19z m-1452 -341 c21
-6 51 -27 71 -50 38 -41 77 -107 57 -95 -7 4 -15 3 -19 -2 -19 -31 -121 -105
-170 -124 -81 -32 -83 -35 -66 -76 9 -20 23 -42 33 -49 9 -7 12 -14 6 -14 -7
0 -23 15 -38 34 -14 19 -32 41 -40 49 -39 39 -56 83 -56 146 0 72 21 116 71
152 52 37 93 45 151 29z m2751 -4 c18 -7 47 -30 65 -50 30 -34 32 -42 32 -109
0 -54 -5 -80 -20 -104 -11 -18 -24 -33 -29 -33 -6 0 -34 9 -63 21 -75 30 -140
49 -149 44 -13 -8 -39 6 -39 21 0 11 -4 12 -19 4 -11 -5 -26 -7 -34 -4 -11 4
-21 -6 -32 -30 -19 -40 -40 -49 -30 -13 4 12 19 49 35 82 70 147 181 214 283
171z m-2574 -202 c18 -25 32 -47 30 -48 -2 -2 -18 -11 -36 -20 l-31 -16 -7 31
c-6 26 1 99 9 99 1 0 17 -21 35 -46z m2148 -3396 c-3 -8 -6 -5 -6 6 -1 11 2
17 5 13 3 -3 4 -12 1 -19z m234 -36 c31 -26 123 -102 205 -169 82 -67 172
-146 201 -175 95 -97 135 -216 108 -318 -8 -30 -12 -40 -10 -22 2 17 0 32 -5
32 -5 0 -35 -12 -67 -27 -50 -24 -70 -28 -148 -28 -80 0 -97 3 -156 31 -37 18
-84 48 -106 68 l-40 36 -12 197 c-7 109 -19 234 -27 278 -8 44 -17 95 -21 113
-8 45 10 42 78 -16z m-2426 -14 c-4 -31 -15 -62 -27 -74 -12 -14 -15 -23 -8
-26 9 -3 9 -49 0 -188 -21 -322 -22 -334 -45 -338 -11 -2 -49 -18 -85 -35 -60
-29 -73 -32 -165 -32 -92 0 -106 3 -163 31 -34 17 -64 28 -67 26 -11 -11 -4
-44 16 -83 14 -28 16 -40 7 -37 -7 2 -28 33 -45 69 -29 56 -32 72 -30 129 6
130 75 223 280 376 56 43 132 101 168 130 154 123 174 129 164 52z m2065 -2
c0 -2 -11 -11 -25 -20 -14 -9 -25 -13 -25 -8 0 5 10 14 23 20 27 13 27 13 27
8z m-140 -65 c-8 -5 -26 -11 -40 -15 -21 -5 -20 -3 5 9 32 15 60 20 35 6z
m-1671 -140 c101 -57 182 -86 381 -136 197 -49 337 -68 397 -54 27 7 99 11
163 9 63 -1 140 -3 170 -4 60 -1 251 27 345 50 179 45 436 145 477 186 14 14
20 15 23 6 17 -50 38 -544 40 -928 1 -239 0 -387 -2 -327 -2 68 -8 107 -15
107 -6 0 -8 -11 -5 -27 3 -16 2 -44 -3 -63 -5 -24 -8 -28 -9 -12 -1 12 -7 22
-15 22 -8 0 -21 3 -30 6 -12 5 -16 0 -16 -17 0 -13 -12 -42 -25 -64 -14 -22
-25 -50 -25 -62 0 -13 -4 -23 -10 -23 -5 0 -10 -9 -10 -20 0 -18 -7 -20 -55
-20 -48 0 -55 -2 -55 -20 0 -13 -7 -20 -20 -20 -11 0 -20 -6 -20 -13 0 -13
-103 -37 -159 -37 -16 0 -51 -7 -79 -16 -45 -15 -52 -15 -78 -1 -16 9 -42 22
-59 30 -42 19 -364 42 -545 38 -25 -1 -61 -1 -80 -1 -65 0 -120 -11 -120 -24
0 -8 -12 -16 -27 -19 -35 -6 -143 3 -167 15 -10 5 -66 16 -125 23 -131 17
-182 29 -197 49 -13 18 -124 23 -124 6 0 -5 -9 -10 -20 -10 -18 0 -20 -7 -20
-60 0 -52 2 -60 19 -60 11 0 22 6 24 13 3 6 6 2 6 -10 1 -13 7 -23 16 -23 21
0 19 -56 -4 -99 -16 -31 -18 -32 -24 -12 -8 30 -30 27 -25 -4 3 -15 1 -25 -7
-25 -16 0 -10 -110 7 -122 10 -8 10 -9 -1 -6 -23 6 -40 71 -52 192 -21 218 10
1282 47 1626 5 43 8 50 14 34 5 -13 46 -43 99 -73z m1338 43 c-3 -3 -12 -4
-19 -1 -8 3 -5 6 6 6 11 1 17 -2 13 -5z m-50 -10 c-3 -3 -12 -4 -19 -1 -8 3
-5 6 6 6 11 1 17 -2 13 -5z m-92 -14 c-22 -5 -80 -11 -130 -14 l-90 -5 100 13
c118 15 183 18 120 6z m-367 -17 c-10 -2 -26 -2 -35 0 -10 3 -2 5 17 5 19 0
27 -2 18 -5z m1345 -448 c4 -33 2 -76 -2 -95 -7 -27 -9 -13 -10 64 -1 110 4
122 12 31z m-2543 -175 c-18 -12 -43 -13 -36 -2 2 4 15 8 28 9 18 2 19 0 8 -7z
m2940 5 c0 -5 -55 -35 -65 -35 -13 0 22 28 41 33 10 2 20 5 22 6 1 0 2 -1 2
-4z m-218 -35 c23 -7 65 -10 93 -7 46 5 48 5 15 -5 -43 -13 -120 -4 -157 17
-15 9 -20 14 -11 11 9 -3 36 -10 60 -16z m-2837 -10 c-16 -4 -52 -7 -80 -7
l-50 0 50 7 c28 4 64 7 80 7 l30 1 -30 -8z m1094 -826 c2 -2 -27 -4 -65 -4
-48 0 -64 3 -54 10 14 9 109 4 119 -6z m649 -11 c-43 -2 -113 -2 -155 0 -43 1
-8 3 77 3 85 0 120 -2 78 -3z m-748 -60 c0 -68 -5 -67 -13 5 -4 30 -2 52 3 52
6 0 10 -25 10 -57z m840 -43 l-7 -65 -1 80 c-1 45 2 73 7 65 4 -8 5 -44 1 -80z
m-843 -72 c-3 -8 -6 -5 -6 6 -1 11 2 17 5 13 3 -3 4 -12 1 -19z m667 0 c3 -13
7 -45 10 -72 9 -71 68 -186 131 -254 30 -33 55 -62 55 -66 0 -3 -205 -5 -455
-3 -250 1 -455 3 -455 4 0 1 27 28 60 61 70 70 131 185 151 287 l13 65 243 0
243 0 4 -22z m-677 -70 c-3 -8 -6 -5 -6 6 -1 11 2 17 5 13 3 -3 4 -12 1 -19z
m-412 -8 c4 -6 10 -8 15 -5 4 3 10 -1 13 -9 7 -18 -14 -26 -61 -25 -20 0 -31
3 -23 6 11 5 11 7 0 14 -12 8 -11 11 1 19 20 13 47 13 55 0z m1848 -61 c-10
-16 -29 -40 -43 -52 -22 -20 -22 -19 5 18 41 57 47 65 52 65 2 0 -4 -14 -14
-31z m-2015 -15 c-4 -3 -12 5 -18 18 -12 22 -12 22 6 6 10 -10 15 -20 12 -24z
m548 8 c-17 -16 -18 -16 -5 5 7 12 15 20 18 17 3 -2 -3 -12 -13 -22z m-27 -39
c-18 -23 -51 -53 -57 -53 -3 0 9 16 28 35 36 37 52 47 29 18z m-424 -63 c3 -6
-1 -7 -9 -4 -18 7 -21 14 -7 14 6 0 13 -4 16 -10z m62 -26 c-3 -3 -12 -4 -19
-1 -8 3 -5 6 6 6 11 1 17 -2 13 -5z m130 -30 c-3 -3 -12 -4 -19 -1 -8 3 -5 6
6 6 11 1 17 -2 13 -5z"/>
<path d="M6073 7030 c-123 -18 -198 -111 -149 -184 23 -36 54 -40 117 -17 70
27 115 26 164 -4 80 -50 145 -20 145 66 0 38 -5 50 -32 77 -58 55 -144 77
-245 62z"/>
<path d="M4270 7019 c-47 -14 -111 -59 -129 -91 -20 -35 -5 -94 31 -121 l26
-19 70 32 c79 36 130 37 215 4 43 -17 50 -18 74 -4 15 9 34 32 41 53 20 52 3
90 -57 125 -39 23 -58 27 -141 29 -52 1 -111 -3 -130 -8z"/>
<path d="M4240 6603 c-170 -28 -336 -146 -405 -287 -37 -74 -65 -183 -65 -251
0 -69 28 -177 66 -254 67 -137 204 -247 359 -290 56 -15 180 -13 245 4 70 18
184 75 232 115 54 44 134 170 159 248 65 207 14 409 -144 570 -114 116 -286
172 -447 145z m151 -199 c40 -20 89 -99 89 -141 0 -46 -21 -92 -59 -127 -43
-41 -128 -48 -189 -17 -118 60 -125 222 -12 282 43 23 130 25 171 3z"/>
<path d="M6101 6600 c-291 -61 -471 -267 -471 -538 0 -156 47 -275 155 -391
47 -50 77 -72 140 -101 133 -62 219 -73 348 -44 227 51 402 241 427 463 21
185 -42 356 -178 484 -108 100 -288 154 -421 127z m135 -196 c42 -20 90 -76
97 -114 13 -62 -31 -142 -95 -176 -63 -33 -175 0 -223 64 -28 38 -28 130 1
169 46 63 150 90 220 57z"/>
<path d="M6961 6154 c0 -11 3 -14 6 -6 3 7 2 16 -1 19 -3 4 -6 -2 -5 -13z"/>
<path d="M5447 5618 c-21 -16 -47 -79 -47 -114 0 -59 -121 -134 -192 -119 -43
10 -118 85 -118 119 0 100 -84 150 -145 86 -25 -27 -29 -38 -29 -85 2 -119
104 -250 227 -291 67 -22 177 -16 238 14 98 48 185 172 196 278 5 51 4 55 -30
89 -37 37 -71 44 -100 23z"/>
<path d="M6433 5409 c-31 -20 -45 -49 -23 -49 5 0 7 7 4 15 -4 8 -1 15 4 15 6
0 12 -6 15 -12 2 -7 3 -5 2 5 -4 22 11 22 19 1 7 -18 -5 -38 -39 -66 -22 -19
-55 -24 -55 -8 0 6 3 9 8 9 21 -4 32 3 32 19 0 15 -2 15 -11 2 -8 -12 -9 -9
-5 13 8 36 0 34 -24 -5 -38 -63 -16 -156 50 -212 41 -34 106 -35 170 -3 51 26
72 61 76 124 7 112 -136 209 -223 152z"/>
<path d="M3930 5401 c-19 -11 -46 -31 -60 -46 l-25 -28 28 18 c15 9 27 22 27
28 0 7 5 6 13 -2 10 -10 9 -14 -5 -22 -9 -5 -23 -16 -31 -24 -8 -8 -18 -11
-22 -7 -5 4 -5 -1 -2 -10 3 -10 2 -20 -2 -23 -16 -9 -19 -59 -6 -85 7 -14 27
-38 44 -55 26 -24 41 -30 94 -33 52 -3 67 0 96 20 49 33 72 69 78 122 5 38 1
53 -21 86 -48 73 -135 98 -206 61z"/>
<path d="M6856 5303 c-6 -14 -5 -15 5 -6 7 7 10 15 7 18 -3 3 -9 -2 -12 -12z"/>
<path d="M3770 5020 c6 -11 13 -20 16 -20 2 0 0 9 -6 20 -6 11 -13 20 -16 20
-2 0 0 -9 6 -20z"/>
<path d="M3815 4970 c10 -11 20 -20 23 -20 3 0 -3 9 -13 20 -10 11 -20 20 -23
20 -3 0 3 -9 13 -20z"/>
<path d="M3875 4900 c10 -11 20 -20 23 -20 3 0 -3 9 -13 20 -10 11 -20 20 -23
20 -3 0 3 -9 13 -20z"/>
<path d="M3936 4842 c5 -4 25 -21 44 -37 l35 -30 -34 38 c-19 20 -39 37 -45
37 -6 0 -6 -3 0 -8z"/>
<path d="M4035 4760 c10 -11 20 -20 23 -20 3 0 -3 9 -13 20 -10 11 -20 20 -23
20 -3 0 3 -9 13 -20z"/>
<path d="M4085 4720 c10 -11 20 -20 23 -20 3 0 -3 9 -13 20 -10 11 -20 20 -23
20 -3 0 3 -9 13 -20z"/>
<path d="M6647 7633 c-3 -3 4 -15 16 -28 23 -24 47 -17 47 13 0 8 -3 13 -6 9
-3 -3 -16 -2 -29 3 -13 5 -25 6 -28 3z"/>
<path d="M6433 7597 c-9 -14 1 -15 32 -1 l30 13 -28 -2 c-16 -1 -31 -5 -34
-10z"/>
<path d="M4736 3463 c-6 -14 -5 -15 5 -6 7 7 10 15 7 18 -3 3 -9 -2 -12 -12z"/>
<path d="M4679 3329 c-14 -51 -18 -82 -10 -73 8 7 30 108 26 113 -2 1 -9 -17
-16 -40z"/>
<path d="M4661 3175 c0 -38 4 -88 11 -110 6 -22 12 -42 12 -45 1 -3 9 -22 20
-44 10 -21 19 -44 20 -50 1 -6 5 -12 10 -13 4 -1 14 -10 22 -20 8 -10 -1 11
-20 47 -45 86 -56 123 -65 222 l-8 83 -2 -70z"/>
<path d="M5796 3023 c-6 -14 -5 -15 5 -6 7 7 10 15 7 18 -3 3 -9 -2 -12 -12z"/>
<path d="M4835 2800 c28 -30 51 -57 53 -59 1 -2 4 -2 7 0 2 3 -21 30 -53 60
l-57 54 50 -55z"/>
<path d="M5635 2784 c-22 -20 -69 -51 -105 -69 -77 -40 -73 -46 5 -9 30 14 76
45 102 69 57 53 55 60 -2 9z"/>
<path d="M4906 2732 c-3 -5 1 -9 9 -9 8 0 12 4 9 9 -3 4 -7 8 -9 8 -2 0 -6 -4
-9 -8z"/>
<path d="M5425 2670 c-13 -6 -15 -9 -5 -9 8 0 22 4 30 9 18 12 2 12 -25 0z"/>
<path d="M5050 2660 c8 -5 24 -10 34 -10 26 0 18 6 -19 14 -22 5 -26 4 -15 -4z"/>
<path d="M4191 2344 c0 -11 3 -14 6 -6 3 7 2 16 -1 19 -3 4 -6 -2 -5 -13z"/>
<path d="M3170 1857 c-37 -18 -56 -60 -45 -93 14 -37 57 -68 84 -59 46 14 69
116 33 148 -22 20 -38 21 -72 4z"/>
<path d="M3410 1857 c-16 -8 -28 -26 -34 -50 -9 -34 -7 -40 19 -67 48 -50 117
-49 164 1 27 29 28 82 1 109 -24 24 -109 28 -150 7z"/>
<path d="M7240 1838 c-41 -44 -11 -128 46 -128 57 0 93 78 58 128 -21 30 -76
30 -104 0z"/>
</g>
</svg>
